<svg width="113" height="22" fill="none" xmlns="http://www.w3.org/2000/svg"><g clip-path="url(#a)"><path d="M1.438 5.578h3.554c1.62 0 2.794.232 3.524.695.734.459 1.101 1.19 1.101 2.196 0 .682-.161 1.242-.484 1.68-.318.437-.742.7-1.274.789v.078c.724.161 1.245.463 1.563.906.323.443.484 1.031.484 1.765 0 1.042-.377 1.855-1.133 2.438-.75.583-1.77.875-3.062.875H1.437V5.578Zm2.421 4.524h1.407c.656 0 1.13-.102 1.421-.305.297-.203.446-.54.446-1.008 0-.437-.162-.75-.485-.937-.317-.193-.822-.29-1.515-.29H3.859v2.54Zm0 1.921V15h1.579c.666 0 1.158-.128 1.476-.383.318-.255.477-.646.477-1.172 0-.948-.677-1.422-2.032-1.422h-1.5Zm18.024-3.757h2.625l-3.461 4.187L24.812 17H22.11l-3.57-4.43V17h-2.383V8.266h2.383v4.242l3.344-4.242ZM31.609 17l-.46-1.188h-.063c-.401.506-.815.857-1.242 1.055-.422.193-.974.29-1.657.29-.838 0-1.5-.24-1.984-.72-.479-.479-.719-1.161-.719-2.046 0-.928.323-1.61.97-2.047.65-.443 1.63-.688 2.937-.735l1.515-.046v-.383c0-.886-.453-1.328-1.36-1.328-.697 0-1.517.21-2.46.632l-.79-1.609c1.006-.526 2.12-.79 3.345-.79 1.172 0 2.07.256 2.695.767.625.51.937 1.286.937 2.328V17H31.61Zm-.703-4.047-.922.031c-.692.021-1.208.146-1.547.375-.338.23-.507.579-.507 1.047 0 .672.385 1.008 1.156 1.008.552 0 .992-.159 1.32-.476.334-.318.5-.74.5-1.266v-.719Zm12.055-4.687v1.789H40.1V17H37.72v-6.945h-2.867v-1.79h8.109ZM50.14 17l-.461-1.188h-.063c-.4.506-.815.857-1.242 1.055-.422.193-.974.29-1.656.29-.839 0-1.5-.24-1.985-.72-.479-.479-.718-1.161-.718-2.046 0-.928.323-1.61.968-2.047.651-.443 1.63-.688 2.938-.735l1.516-.046v-.383c0-.886-.454-1.328-1.36-1.328-.698 0-1.518.21-2.46.632l-.79-1.609c1.005-.526 2.12-.79 3.344-.79 1.172 0 2.07.256 2.695.767.625.51.938 1.286.938 2.328V17H50.14Zm-.703-4.047-.922.031c-.693.021-1.209.146-1.547.375-.339.23-.508.579-.508 1.047 0 .672.385 1.008 1.156 1.008.552 0 .992-.159 1.32-.476.334-.318.5-.74.5-1.266v-.719ZM62.085 17h-2.383v-6.945h-2.195c-.167 1.953-.37 3.411-.61 4.375-.24.958-.56 1.653-.96 2.086-.396.427-.917.64-1.563.64-.552 0-1.005-.083-1.36-.25V15c.256.104.511.156.766.156.297 0 .544-.213.742-.64.204-.428.383-1.138.54-2.133.161-1 .299-2.373.414-4.117h6.609V17Zm4.406-4.383c0 .865.14 1.518.422 1.961.287.443.75.664 1.39.664.636 0 1.092-.219 1.368-.656.281-.443.422-1.099.422-1.969 0-.864-.14-1.513-.422-1.945-.281-.432-.742-.649-1.383-.649-.635 0-1.094.217-1.375.649-.281.427-.422 1.075-.422 1.945Zm6.04 0c0 1.422-.376 2.534-1.126 3.336-.75.802-1.794 1.203-3.133 1.203-.838 0-1.578-.182-2.218-.547a3.69 3.69 0 0 1-1.477-1.586c-.344-.687-.516-1.49-.516-2.406 0-1.427.373-2.536 1.118-3.328.744-.792 1.791-1.187 3.14-1.187.839 0 1.578.182 2.22.546a3.65 3.65 0 0 1 1.476 1.57c.343.683.515 1.482.515 2.4Zm8-4.351v1.789h-3.65V17H74.5V8.266h6.031Z" fill="#A65CF0"/><g clip-path="url(#b)" stroke="#A65CF0" stroke-width="2"><path d="M95.625 7.563 99.063 11l-3.438 3.438" stroke-linecap="round" stroke-linejoin="round"/><circle cx="97" cy="11" r="10"/></g></g><defs><clipPath id="a"><path fill="#fff" d="M0 0h108v22H0z"/></clipPath><clipPath id="b"><path fill="#fff" transform="translate(86)" d="M0 0h22v22H0z"/></clipPath></defs></svg>